<mxfile host="app.diagrams.net" modified="2023-12-06T03:32:44.792Z" agent="Mozilla/5.0 (Windows NT 10.0; Win64; x64) AppleWebKit/537.36 (KHTML, like Gecko) Chrome/119.0.0.0 Safari/537.36" etag="CfSX68OBL4P_-zRbCMT7" version="22.1.5" type="device">
  <diagram id="C5RBs43oDa-KdzZeNtuy" name="Page-1">
    <mxGraphModel dx="1120" dy="478" grid="1" gridSize="10" guides="1" tooltips="1" connect="1" arrows="1" fold="1" page="1" pageScale="1" pageWidth="827" pageHeight="1169" math="0" shadow="0">
      <root>
        <mxCell id="WIyWlLk6GJQsqaUBKTNV-0" />
        <mxCell id="WIyWlLk6GJQsqaUBKTNV-1" parent="WIyWlLk6GJQsqaUBKTNV-0" />
        <mxCell id="SiKH6Yoqfr_jh62dONYM-0" value="" style="edgeStyle=orthogonalEdgeStyle;rounded=0;orthogonalLoop=1;jettySize=auto;html=1;entryX=0.5;entryY=0;entryDx=0;entryDy=0;" edge="1" parent="WIyWlLk6GJQsqaUBKTNV-1" source="SiKH6Yoqfr_jh62dONYM-1" target="SiKH6Yoqfr_jh62dONYM-17">
          <mxGeometry relative="1" as="geometry">
            <mxPoint x="425" y="180" as="targetPoint" />
          </mxGeometry>
        </mxCell>
        <mxCell id="SiKH6Yoqfr_jh62dONYM-1" value="start" style="ellipse;whiteSpace=wrap;html=1;" vertex="1" parent="WIyWlLk6GJQsqaUBKTNV-1">
          <mxGeometry x="365" y="20" width="120" height="80" as="geometry" />
        </mxCell>
        <mxCell id="SiKH6Yoqfr_jh62dONYM-2" value="" style="edgeStyle=orthogonalEdgeStyle;rounded=0;orthogonalLoop=1;jettySize=auto;html=1;exitX=0.5;exitY=1;exitDx=0;exitDy=0;" edge="1" parent="WIyWlLk6GJQsqaUBKTNV-1" source="SiKH6Yoqfr_jh62dONYM-17" target="SiKH6Yoqfr_jh62dONYM-5">
          <mxGeometry relative="1" as="geometry">
            <mxPoint x="425" y="260" as="sourcePoint" />
          </mxGeometry>
        </mxCell>
        <mxCell id="SiKH6Yoqfr_jh62dONYM-4" value="" style="edgeStyle=orthogonalEdgeStyle;rounded=0;orthogonalLoop=1;jettySize=auto;html=1;" edge="1" parent="WIyWlLk6GJQsqaUBKTNV-1" source="SiKH6Yoqfr_jh62dONYM-5" target="SiKH6Yoqfr_jh62dONYM-8">
          <mxGeometry relative="1" as="geometry" />
        </mxCell>
        <mxCell id="SiKH6Yoqfr_jh62dONYM-5" value="&lt;div style=&quot;background-color: rgb(31, 31, 31); line-height: 19px;&quot;&gt;&lt;font face=&quot;Consolas, Courier New, monospace&quot; color=&quot;#cccccc&quot;&gt;file = fopen(&quot;bt01.txt&quot;,&quot;r&quot;)&lt;/font&gt;&lt;br&gt;&lt;/div&gt;" style="rounded=0;whiteSpace=wrap;html=1;" vertex="1" parent="WIyWlLk6GJQsqaUBKTNV-1">
          <mxGeometry x="302.5" y="270" width="245" height="60" as="geometry" />
        </mxCell>
        <mxCell id="SiKH6Yoqfr_jh62dONYM-6" value="" style="edgeStyle=orthogonalEdgeStyle;rounded=0;orthogonalLoop=1;jettySize=auto;html=1;" edge="1" parent="WIyWlLk6GJQsqaUBKTNV-1" source="SiKH6Yoqfr_jh62dONYM-8" target="SiKH6Yoqfr_jh62dONYM-9">
          <mxGeometry relative="1" as="geometry" />
        </mxCell>
        <mxCell id="SiKH6Yoqfr_jh62dONYM-7" value="" style="edgeStyle=orthogonalEdgeStyle;rounded=0;orthogonalLoop=1;jettySize=auto;html=1;" edge="1" parent="WIyWlLk6GJQsqaUBKTNV-1" source="SiKH6Yoqfr_jh62dONYM-8" target="SiKH6Yoqfr_jh62dONYM-11">
          <mxGeometry relative="1" as="geometry" />
        </mxCell>
        <mxCell id="SiKH6Yoqfr_jh62dONYM-8" value="file==NULL" style="rhombus;whiteSpace=wrap;html=1;rounded=0;" vertex="1" parent="WIyWlLk6GJQsqaUBKTNV-1">
          <mxGeometry x="385" y="380" width="80" height="80" as="geometry" />
        </mxCell>
        <mxCell id="SiKH6Yoqfr_jh62dONYM-9" value="printf(&quot;Khong the mo file!&quot;)" style="shape=parallelogram;perimeter=parallelogramPerimeter;whiteSpace=wrap;html=1;fixedSize=1;" vertex="1" parent="WIyWlLk6GJQsqaUBKTNV-1">
          <mxGeometry x="560" y="390" width="190" height="60" as="geometry" />
        </mxCell>
        <mxCell id="SiKH6Yoqfr_jh62dONYM-20" value="" style="edgeStyle=orthogonalEdgeStyle;rounded=0;orthogonalLoop=1;jettySize=auto;html=1;" edge="1" parent="WIyWlLk6GJQsqaUBKTNV-1" source="SiKH6Yoqfr_jh62dONYM-11" target="SiKH6Yoqfr_jh62dONYM-19">
          <mxGeometry relative="1" as="geometry" />
        </mxCell>
        <mxCell id="SiKH6Yoqfr_jh62dONYM-11" value="&lt;div style=&quot;background-color: rgb(31, 31, 31); line-height: 19px;&quot;&gt;&lt;div style=&quot;line-height: 19px;&quot;&gt;&lt;div style=&quot;line-height: 19px;&quot;&gt;&lt;font face=&quot;Consolas, Courier New, monospace&quot; color=&quot;#cccccc&quot;&gt;fread(str,sizeof(char),sizeof(str),file)&lt;/font&gt;&lt;br&gt;&lt;/div&gt;&lt;/div&gt;&lt;/div&gt;" style="rounded=0;whiteSpace=wrap;html=1;" vertex="1" parent="WIyWlLk6GJQsqaUBKTNV-1">
          <mxGeometry x="275" y="520" width="300" height="60" as="geometry" />
        </mxCell>
        <mxCell id="SiKH6Yoqfr_jh62dONYM-12" value="true" style="text;html=1;strokeColor=none;fillColor=none;align=center;verticalAlign=middle;whiteSpace=wrap;rounded=0;" vertex="1" parent="WIyWlLk6GJQsqaUBKTNV-1">
          <mxGeometry x="479" y="430" width="60" height="30" as="geometry" />
        </mxCell>
        <mxCell id="SiKH6Yoqfr_jh62dONYM-13" value="false" style="text;html=1;strokeColor=none;fillColor=none;align=center;verticalAlign=middle;whiteSpace=wrap;rounded=0;" vertex="1" parent="WIyWlLk6GJQsqaUBKTNV-1">
          <mxGeometry x="425" y="480" width="60" height="30" as="geometry" />
        </mxCell>
        <mxCell id="SiKH6Yoqfr_jh62dONYM-14" value="" style="edgeStyle=orthogonalEdgeStyle;rounded=0;orthogonalLoop=1;jettySize=auto;html=1;" edge="1" parent="WIyWlLk6GJQsqaUBKTNV-1" source="SiKH6Yoqfr_jh62dONYM-15" target="SiKH6Yoqfr_jh62dONYM-16">
          <mxGeometry relative="1" as="geometry" />
        </mxCell>
        <mxCell id="SiKH6Yoqfr_jh62dONYM-15" value="fclose(file)" style="whiteSpace=wrap;html=1;rounded=0;" vertex="1" parent="WIyWlLk6GJQsqaUBKTNV-1">
          <mxGeometry x="365" y="740" width="120" height="60" as="geometry" />
        </mxCell>
        <mxCell id="SiKH6Yoqfr_jh62dONYM-16" value="end" style="ellipse;whiteSpace=wrap;html=1;rounded=0;" vertex="1" parent="WIyWlLk6GJQsqaUBKTNV-1">
          <mxGeometry x="357.5" y="840" width="135" height="80" as="geometry" />
        </mxCell>
        <mxCell id="SiKH6Yoqfr_jh62dONYM-17" value="&lt;div&gt;FILE *file&lt;/div&gt;&lt;div&gt;char str[100]&lt;span style=&quot;&quot;&gt;&lt;/span&gt;&lt;/div&gt;" style="rounded=0;whiteSpace=wrap;html=1;" vertex="1" parent="WIyWlLk6GJQsqaUBKTNV-1">
          <mxGeometry x="365" y="160" width="120" height="60" as="geometry" />
        </mxCell>
        <mxCell id="SiKH6Yoqfr_jh62dONYM-21" value="" style="edgeStyle=orthogonalEdgeStyle;rounded=0;orthogonalLoop=1;jettySize=auto;html=1;" edge="1" parent="WIyWlLk6GJQsqaUBKTNV-1" source="SiKH6Yoqfr_jh62dONYM-19" target="SiKH6Yoqfr_jh62dONYM-15">
          <mxGeometry relative="1" as="geometry" />
        </mxCell>
        <mxCell id="SiKH6Yoqfr_jh62dONYM-19" value="printf(&quot;Noi dung trong file: %s&quot;,str)" style="shape=parallelogram;perimeter=parallelogramPerimeter;whiteSpace=wrap;html=1;fixedSize=1;" vertex="1" parent="WIyWlLk6GJQsqaUBKTNV-1">
          <mxGeometry x="337.5" y="630" width="175" height="60" as="geometry" />
        </mxCell>
      </root>
    </mxGraphModel>
  </diagram>
</mxfile>
